# AST/ASF file generated using VICON BodyLanguage
# -----------------------------------------------
:version 1.10
:name VICON
:units
  mass 1.0
  length 0.45
  angle deg
:documentation
   .ast/.asf automatically generated from VICON data using
   VICON BodyBuilder and BodyLanguage model FoxedUp or BRILLIANT.MOD
:root
   order TX TY TZ RX RY RZ
   axis XYZ
   position 0 0 0  
   orientation 0 0 0 
:bonedata
  begin
     id 1 
     name lhipjoint
     direction 0.710188 -0.616876 0.339259 
     length 2.5669 
     axis 0 0 0  XYZ
  end
  begin
     id 2 
     name lfemur
     direction 0.34202 -0.939693 0  
     length 7.12796  
     axis 0 0 20  XYZ
    dof rx ry rz
    limits (-160.0 20.0)
           (-70.0 70.0)
           (-60.0 70.0)
  end
  begin
     id 3 
     name ltibia
     direction 0.34202 -0.939693 0   
     length 7.58108   
     axis 0 0 20   XYZ
    dof rx
    limits (-10.0 170.0)
  end
  begin
     id 4 
     name lfoot
     direction 0.0669471 -0.183936 0.980656   
     length 2.17365   
     axis -90 7.62852e-016 20   XYZ
    dof rx rz
    limits (-45.0 90.0)
           (-70.0 20.0)
  end
  begin
     id 5 
     name ltoes
     direction 1.53508e-011 -4.21705e-011 1   
     length 1.09427   
     axis -90 7.62852e-016 20   XYZ
    dof rx
    limits (-90.0 20.0)
  end
  begin
     id 6 
     name rhipjoint
     direction -0.700191 -0.625589 0.34405   
     length 2.53115  
     axis 0 0 0  XYZ 
  end
  begin
     id 7 
     name rfemur
     direction -0.34202 -0.939693 0   
     length 7.33006   
     axis 0 0 -20   XYZ
    dof rx ry rz
    limits (-160.0 20.0)
           (-70.0 70.0)
           (-70.0 60.0)
  end
  begin
     id 8 
     name rtibia
     direction -0.34202 -0.939693 0   
     length 7.64926   
     axis 0 0 -20   XYZ
    dof rx
    limits (-10.0 170.0)
 end
 begin
     id 9 
     name rfoot
     direction -0.0688927 -0.189281 0.979503   
     length 2.20493  
     axis -90 -7.62852e-016 -20   XYZ
    dof rx rz
    limits (-45.0 90.0)
           (-20.0 70.0)
  end
  begin
     id 10 
     name rtoes
     direction -1.53567e-011 -4.21933e-011 1   
     length 1.10919   
     axis -90 -7.62852e-016 -20   XYZ
    dof rx
    limits (-90.0 20.0)
  end
  begin
     id 11 
     name lowerback
     direction -0.0167868 0.989873 -0.140959   
     length 2.14596   
     axis 0 0 0   XYZ
    dof rx ry rz
    limits (-20.0 45.0)
           (-30.0 30.0)
           (-30.0 30.0)
  end
  begin
     id 12 
     name upperback
     direction 0.0129109 0.998033 0.0613525   
     length 2.10457   
     axis 0 0 0   XYZ
    dof rx ry rz
    limits (-20.0 45.0)
           (-30.0 30.0)
           (-30.0 30.0)
  end
  begin
     id 13 
     name thorax
     direction 0.0177047 0.991119 0.131797   
     length 2.17652   
     axis 0 0 0   XYZ
    dof rx ry rz
    limits (-20.0 45.0)
           (-30.0 30.0)
           (-30.0 30.0)
  end
  begin
     id 14 
     name lowerneck
     direction -0.0336893 0.997548 0.0613464   
     length 1.8912   
     axis 0 0 0   XYZ
    dof rx ry rz
    limits (-20.0 45.0)
           (-30.0 30.0)
           (-30.0 30.0)
  end
  begin
     id 15 
     name upperneck
     direction 0.0435909 0.997179 -0.0611028   
     length 1.8829   
     axis 0 0 0   XYZ
    dof rx ry rz
    limits (-20.0 45.0)
           (-30.0 30.0)
           (-30.0 30.0)
  end
  begin
     id 16
     name head
     direction 0.0175076 0.999444 -0.0283782  
     length 1.93197  
     axis 0 0 0   XYZ
    dof rx ry rz
    limits (-20.0 45.0)
           (-30.0 30.0)
           (-30.0 30.0)
  end
  begin
     id 17 
     name lclavicle
     direction 0.919164 0.389875 0.0559876  
     length 3.60004  
     axis 0 0 0   XYZ
    dof ry rz
    limits (-20.0 10.0)
           (0.0 20.0)
  end
  begin
     id 18 
     name lhumerus
     direction 1 -4.48958e-011 6.89191e-027   
     length 5.43301   
     axis 180 -30 -90   XYZ
    dof rx ry rz
    limits (-60.0 90.0)
           (-90.0 90.0)
           (-90.0 90.0)
  end
  begin
     id 19
     name lradius
     direction 1 -4.4897e-011 3.24727e-027   
     length 3.15936   
     axis 180 -30 -90   XYZ
    dof rx
    limits (-10.0 170.0)
  end
  begin
     id 20
     name lwrist
     direction 1 -4.4897e-011 9.00228e-027   
     length 1.57968   
     axis -6.29373e-015 90 90   XYZ
    dof ry
    limits (-180.0 0.0)
 end
  begin
     id 21 
     name lhand
     direction 1 -4.48968e-011 1.80042e-026   
     length 0.712827   
     axis -1.14882e-014 90 90   XYZ
    dof rx rz
    limits (-90.0 90.0)
           (-45.0 45.0)
  end
  begin
     id 22 
     name lfingers
     direction 1 -4.49019e-011 3.60267e-026   
     length 0.574699   
     axis -2.29769e-014 90 90   XYZ
    dof rx
    limits (0.0 90.0)
  end
  begin
     id 23
     name lthumb
     direction 0.707107 -6.3498e-011 0.707107   
     length 0.825157   
     axis -90 45 5.37419e-014   XYZ
    dof rx rz
    limits (-45.0 45.0)
           (-45.0 45.0)
  end
  begin
     id 24 
     name rclavicle
     direction -0.890334 0.455305 -0.00132111   
     length 3.51494  
     axis 0 0 0   XYZ 
    dof ry rz
    limits (-10.0 20.0)
           (-20.0 0.0)
  end
  begin
     id 25 
     name rhumerus
     direction -1 -4.48967e-011 5.07175e-028  
     length 5.34194   
     axis 180 30 90   XYZ
    dof rx ry rz
    limits (-90.0 60.0)
           (-90.0 90.0)
           (-90.0 90.0)
  end
  begin
     id 26 
     name rradius
     direction -1 -4.48955e-011 3.30467e-027   
     length 3.19351   
     axis 180 30 90   XYZ
    dof rx
    limits (-10.0 170.0)
  end
  begin
     id 27 
     name rwrist
     direction -1 -4.48968e-011 9.00208e-027   
     length 1.59676   
     axis -6.29373e-015 -90 -90   XYZ
    dof ry
    limits (-180.0 0.0)
  end
  begin
     id 28
     name rhand
     direction -1 -4.49e-011 1.80099e-026   
     length 0.743862   
     axis -1.14882e-014 -90 -90   XYZ
    dof rx rz
    limits (-90.0 90.0)
           (-45.0 45.0)
  end
  begin
     id 29
     name rfingers
     direction -1 -4.49009e-011 3.6023e-026   
     length 0.599721   
     axis -2.29769e-014 -90 -90   XYZ
    dof rx
    limits (0.0 90.0)
  end
  begin
     id 30
     name rthumb
     direction -0.707107 -6.35025e-011 0.707107   
     length 0.861083   
     axis -90 -45 -5.37419e-014   XYZ
    dof rx rz
    limits (-45.0 45.0)
           (-45.0 45.0)
  end
:hierarchy
  begin
    root lhipjoint rhipjoint lowerback
    lhipjoint lfemur
    lfemur ltibia
    ltibia lfoot
    lfoot ltoes
    rhipjoint rfemur
    rfemur rtibia
    rtibia rfoot
    rfoot rtoes
    lowerback upperback
    upperback thorax
    thorax lowerneck lclavicle rclavicle
    lowerneck upperneck
    upperneck head
    lclavicle lhumerus
    lhumerus lradius
    lradius lwrist
    lwrist lhand lthumb
    lhand lfingers
    rclavicle rhumerus
    rhumerus rradius
    rradius rwrist
    rwrist rhand rthumb
    rhand rfingers
  end

#!OML:ASF H:\Martial Arts Walks\Project 1\Capture day 1\Session 1\male.ASF
:FULLY-SPECIFIED
:DEGREES
2114
root 1.93963 16.1603 -24.9682 357.21 17.5376 -2.23922
lowerback 19.6993 0.112867 -4.80621
upperback -4.50869 -0.751034 2.25914
thorax -16.3175 0.30774 5.62499
lowerneck -7.84725 -1.76631 -6.21796
upperneck 15.8946 -1.53526 0.272051
head 6.17515 -1.07985 0.994898
rclavicle 2.20899e-014 9.93923e-017
rhumerus 25.1721 -20.7156 -63.2764
rradius 131.651
rwrist -68.6063
rhand -32.931 -28.7785
rfingers 7.12502
rthumb -6.14758 -58.6693
lclavicle 2.20899e-014 9.93923e-017
lhumerus 10.1996 -2.70839 82.4797
lradius 97.0247
lwrist 1.84585
lhand -34.2735 380.111
lfingers 7.12502
lthumb -7.44361 409.96
rfemur -72.5961 -45.1395 20.6665
rtibia 143.195
rfoot 33.0795 26.152
rtoes 23.2331
lfemur -26.3568 8.11524 -16.8135
ltibia 53.5066
lfoot -22.1385 4.15954
ltoes -6.69572
2115
root 2.02202 16.2024 -24.9611 356.959 17.208 -1.70708
lowerback 19.4826 0.811754 -4.82308
upperback -4.5188 0.171808 2.09171
thorax -16.3223 0.710378 5.12811
lowerneck -7.4131 -2.82772 -7.26724
upperneck 16.2914 -2.9747 0.951901
head 6.30439 -1.79492 1.27262
rclavicle -5.0951e-014 -1.799e-014
rhumerus 27.4097 -23.2565 -72.1417
rradius 134.886
rwrist -76.1109
rhand -34.4193 -31.1899
rfingers 7.12502
rthumb -7.58428 -61.0339
lclavicle -5.0951e-014 -1.799e-014
lhumerus 8.14812 -5.47111 85.9635
lradius 98.5825
lwrist -0.0392414
lhand -35.5129 380.04
lfingers 7.12502
lthumb -8.63972 409.843
rfemur -75.8335 -46.4344 25.4445
rtibia 145.201
rfoot 36.6053 24.9366
rtoes 23.1154
lfemur -25.1749 8.60863 -17.5994
ltibia 52.5204
lfoot -21.6915 4.62534
ltoes -6.77945
2116
root 2.10397 16.2377 -24.9567 356.474 16.806 -1.10397
lowerback 19.6292 1.7558 -4.5797
upperback -4.46962 1.46549 1.85118
thorax -16.5048 1.25049 4.27363
lowerneck -6.76109 -4.29151 -8.72129
upperneck 16.5275 -4.98199 1.85003
head 6.41883 -2.79205 1.63987
rclavicle -6.62947e-014 -2.127e-014
rhumerus 29.0647 -24.682 -79.4572
rradius 137.351
rwrist -75.5275
rhand -33.9043 -30.7341
rfingers 7.12502
rthumb -7.08719 -60.5955
lclavicle -6.62947e-014 -2.127e-014
lhumerus 6.04021 -9.24733 89.772
lradius 99.9081
lwrist -2.21145
lhand -36.3834 379.666
lfingers 7.12502
lthumb -9.47975 409.433
rfemur -78.8922 -46.49 30.4019
rtibia 146.712
rfoot 39.8366 23.4645
rtoes 25.2132
lfemur -23.7191 9.06334 -18.4123
ltibia 51.55
lfoot -21.3204 5.16928
ltoes -6.52687
2117
root 2.18576 16.2645 -24.9571 355.945 16.3852 -0.401929
lowerback 19.8667 2.75774 -4.32384
upperback -4.3431 2.83811 1.62421
thorax -16.6275 1.81794 3.3883
lowerneck -5.77587 -5.82856 -10.1551
upperneck 16.2759 -7.14502 2.71776
head 6.37879 -3.86291 1.98579
rclavicle -5.33861e-014 -6.16232e-015
rhumerus 30.4592 -24.0638 -84.9288
rradius 138.454
rwrist -66.6909
rhand -31.6066 -30.0429
rfingers 7.12502
rthumb -4.86888 -59.967
lclavicle -5.33861e-014 -6.16232e-015
lhumerus 3.90455 -13.5428 93.5585
lradius 100.988
lwrist -4.52188
lhand -36.8277 379.424
lfingers 7.12502
lthumb -9.90846 409.171
rfemur -81.9281 -45.258 35.3892
rtibia 147.765
rfoot 42.2757 21.8945
rtoes 23.9434
lfemur -22.216 9.40117 -19.3176
ltibia 50.6327
lfoot -20.9428 6.05699
ltoes -6.79105
2118
root 2.26692 16.2789 -24.9612 355.354 15.9662 0.407636
lowerback 20.2832 3.60622 -4.30546
upperback -4.0687 3.94475 1.48164
thorax -16.6485 2.28934 2.81481
lowerneck -5.07687 -7.21016 -11.0361
upperneck 15.7604 -9.08946 3.22924
head 6.29442 -4.81797 2.13993
rclavicle 9.61621e-015 1.51076e-014
rhumerus 31.652 -21.3328 -88.9995
rradius 138.335
rwrist -54.6486
rhand -27.8009 -31.0352
rfingers 7.12502
rthumb -1.19366 -61.0116
lclavicle 9.61621e-015 1.51076e-014
lhumerus 2.0437 -17.7789 96.9873
lradius 101.691
lwrist -6.56899
lhand -37.3546 379.426
lfingers 7.12502
lthumb -10.4167 409.148
rfemur -84.5611 -42.8546 39.9037
rtibia 148.413
rfoot 43.5689 20.4457
rtoes 23.8973
lfemur -20.6577 9.67352 -20.3042
ltibia 49.7853
lfoot -20.5351 7.16874
ltoes -6.63192
2119
root 2.34325 16.2833 -24.968 354.765 15.6331 1.14792
lowerback 20.7705 4.25592 -4.48767
upperback -3.78111 4.73935 1.43503
thorax -16.6847 2.64747 2.56422
lowerneck -4.28501 -8.31136 -11.3008
upperneck 14.8829 -10.7235 3.71973
head 6.04277 -5.58995 2.22959
rclavicle 4.6615e-014 6.75868e-015
rhumerus 32.6307 -17.0928 -91.9231
rradius 136.94
rwrist -44.5646
rhand -24.1329 -34.9284
rfingers 7.12502
rthumb 2.34897 -64.8952
lclavicle 4.6615e-014 6.75868e-015
lhumerus 0.201084 -21.9941 100.022
lradius 102.296
lwrist -7.58818
lhand -38.0761 379.581
lfingers 7.12502
lthumb -11.1127 409.267
rfemur -86.9781 -39.2011 44.1592
rtibia 148.608
rfoot 41.5996 21.352
rtoes 18.6068
lfemur -19.2341 9.81916 -21.2025
ltibia 49.0537
lfoot -20.3286 7.67124
ltoes -6.24328
2120
root 2.41562 16.276 -24.9766 354.295 15.4152 1.98209
lowerback 21.191 4.72586 -4.95727
upperback -3.44629 5.22642 1.46799
thorax -16.6312 2.90078 2.67761
lowerneck -3.61881 -9.13253 -11.4092
upperneck 13.819 -12.0107 4.53552
head 5.7481 -6.16885 2.43089
rclavicle 1.21259e-014 -3.97569e-016
rhumerus 33.5707 -12.0554 -93.6692
rradius 134.225
rwrist -41.2556
rhand -22.2296 -36.0968
rfingers 7.12502
rthumb 4.18708 -66.0354
lclavicle 1.21259e-014 -3.97569e-016
lhumerus -1.31489 -26.1084 102.722
lradius 102.697
lwrist -7.93664
lhand -38.0484 380.029
lfingers 7.12502
lthumb -11.0859 409.716
rfemur -88.7556 -35.6961 46.7971
rtibia 148.592
rfoot 42.2508 18.9202
rtoes 16.6266
lfemur -18.0758 9.91354 -22.2422
ltibia 48.4717
lfoot -20.2135 7.81945
ltoes -5.78705
2121
root 2.47787 16.2709 -24.9853 353.886 15.2624 2.62944
lowerback 21.598 5.14697 -5.33023
upperback -3.22758 5.67503 1.52041
thorax -16.7061 3.13146 2.76479
lowerneck -2.69424 -9.80925 -11.5008
upperneck 12.8259 -13.1734 5.77197
head 5.46259 -6.67839 2.78494
rclavicle 3.21037e-014 2.38542e-015
rhumerus 34.1556 -7.14514 -94.5616
rradius 130.823
rwrist -46.7643
rhand -24.6841 -37.6436
rfingers 7.12502
rthumb 1.81664 -67.6156
lclavicle 3.21037e-014 2.38542e-015
lhumerus -2.75748 -30.4524 105.044
lradius 103.201
lwrist -6.40651
lhand -36.7247 381.509
lfingers 7.12502
lthumb -9.80902 411.26
rfemur -90.1113 -33.0165 47.6488
rtibia 148.599
rfoot 42.8294 15.9862
rtoes 20.7386
lfemur -17.1619 10.2653 -23.0365
ltibia 48.0681
lfoot -20.1276 7.81737
ltoes -5.44345
2122
root 2.53446 16.2618 -24.9874 353.626 15.2466 3.06053
lowerback 21.7412 5.3273 -5.57145
upperback -3.06658 5.8563 1.61204
thorax -16.6553 3.2361 2.93588
lowerneck -1.87575 -10.3217 -11.6755
upperneck 12.2393 -14.1055 7.11046
head 5.33179 -7.08552 3.19037
rclavicle -9.26834e-014 -2.8625e-014
rhumerus 35.13 -2.52301 -94.7209
rradius 125.896
rwrist -53.449
rhand -25.7781 -36.6707
rfingers 7.12502
rthumb 0.760073 -66.6491
lclavicle -9.26834e-014 -2.8625e-014
lhumerus -3.63767 -34.8363 106.636
lradius 102.825
lwrist -5.79301
lhand -36.2886 383.965
lfingers 7.12502
lthumb -9.38829 413.736
rfemur -91.021 -31.2863 47.1324
rtibia 148.456
rfoot 43.8081 12.0457
rtoes 29.2181
lfemur -16.5995 10.7171 -23.5807
ltibia 47.8509
lfoot -20.1835 7.41478
ltoes -4.59619
2123
root 2.58626 16.2462 -24.9848 353.607 15.431 3.50071
lowerback 21.6004 5.32983 -5.80489
upperback -3.00252 5.8066 1.62899
thorax -16.5157 3.2357 3.1175
lowerneck -1.45276 -10.7805 -11.6986
upperneck 12.5702 -14.8999 7.88624
head 5.50054 -7.44251 3.37332
rclavicle -1.28713e-014 -7.15625e-015
rhumerus 36.2515 2.00826 -94.0201
rradius 120.572
rwrist -58.8535
rhand -28.1752 -38.8219
rfingers 7.12502
rthumb -1.55517 -68.796
lclavicle -1.28713e-014 -7.15625e-015
lhumerus -4.13141 -39.1109 107.568
lradius 101.516
lwrist -6.69819
lhand -40.4144 384.568
lfingers 7.12502
lthumb -13.3672 414.119
rfemur -91.2029 -30.7186 45.3668
rtibia 148.219
rfoot 43.8567 12.4158
rtoes 31.1922
lfemur -16.4177 11.3124 -24.2122
ltibia 47.761
lfoot -20.214 7.07193
ltoes -4.0788
2124
root 2.63196 16.2264 -24.975 353.785 15.8543 3.94205
lowerback 21.1359 5.27939 -6.12077
upperback -3.07061 5.67453 1.57388
thorax -16.3339 3.20578 3.30768
lowerneck -0.938414 -11.2316 -11.4252
upperneck 13.4647 -15.6605 8.03304
head 5.76073 -7.79992 3.31829
rclavicle -1.1778e-014 -1.98785e-014
rhumerus 37.1491 6.06369 -92.5965
rradius 114.285
rwrist -60.3231
rhand -28.5275 -40.6243
rfingers 7.12502
rthumb -1.89533 -70.5957
lclavicle -1.1778e-014 -1.98785e-014
lhumerus -4.53782 -43.3018 108.261
lradius 100.813
lwrist -5.26846
lhand -40.8962 386.711
lfingers 7.12502
lthumb -13.8316 416.232
rfemur -91.1674 -30.7274 43.0536
rtibia 147.714
rfoot 42.3424 17.9754
rtoes 23.754
lfemur -16.4652 11.7196 -24.9022
ltibia 47.7458
lfoot -20.3633 6.69461
ltoes -2.70207
2125
root 2.67168 16.2191 -24.9621 354.014 16.4725 4.22314
lowerback 20.7469 4.91242 -6.37286
upperback -3.17066 5.15086 1.63723
thorax -16.1889 3.005 3.73647
lowerneck -0.991234 -11.423 -11.4879
upperneck 14.876 -15.9821 7.85416
head 6.23883 -7.95625 3.20785
rclavicle 2.60905e-014 1.82882e-014
rhumerus 38.5347 10.463 -90.266
rradius 108.191
rwrist -60.2931
rhand -28.4097 -42.0186
rfingers 7.12502
rthumb -1.78164 -71.9909
lclavicle 2.60905e-014 1.82882e-014
lhumerus -4.43438 -46.3639 108.242
lradius 99.9627
lwrist -4.22588
lhand -47.0377 400.594
lfingers 7.12502
lthumb -19.7435 429.611
rfemur -91.1153 -31.1296 40.7871
rtibia 147.065
rfoot 39.5675 24.4945
rtoes 13.2492
lfemur -16.5886 11.8938 -25.414
ltibia 47.7242
lfoot -20.5424 6.2246
ltoes -2.11105
2126
root 2.71233 16.2188 -24.9487 354.082 17.2359 4.23706
lowerback 20.3279 4.55122 -6.2177
upperback -3.21954 4.72843 1.59842
thorax -15.9173 2.79856 3.77689
lowerneck -0.721081 -11.5912 -11.2882
upperneck 15.7987 -16.2928 7.7286
head 6.49128 -8.10209 3.10793
rclavicle 9.25343e-014 -1.98785e-014
rhumerus 40.2025 13.8714 -85.8094
rradius 102.841
rwrist -60.3898
rhand -29.7826 -42.1885
rfingers 7.12502
rthumb -3.10748 -72.1456
lclavicle 9.25343e-014 -1.98785e-014
lhumerus -4.24168 -47.806 108.325
lradius 100.459
lwrist -3.16814
lhand -46.4624 431.834
lfingers 7.12502
lthumb -19.1903 259.093
rfemur -90.8622 -31.5475 39.1239
rtibia 146.244
rfoot 36.064 30.1145
rtoes 3.64386
lfemur -16.5599 11.5734 -25.5987
ltibia 47.7131
lfoot -20.7748 5.74836
ltoes -1.79802
